# xmcd
#
# Track frame offsets:
#	150
#	19908
#	36974
#	55402
#	71185
#	89454
#	109222
#	132344
#	149044
#	165728
#	182212
#	200881
#	215825
#
# Disc length: 3157 seconds
#
# Revision: 0
# Processed by: cddbd v1.5PL3 Copyright (c) Steve Scherf et al.
# Submitted via: dBpowerAMP V4.0
#
DISCID=db0c530d
DTITLE=rubben - soulstar
DYEAR=2003
DGENRE=R&B
TTITLE0=?
TTITLE1=?
TTITLE2=?
TTITLE3=?
TTITLE4=?
TTITLE5=?
TTITLE6=?
TTITLE7=?
TTITLE8=?
TTITLE9=?
TTITLE10=?
TTITLE11=?
TTITLE12=?
EXTD=
EXTT0=
EXTT1=
EXTT2=
EXTT3=
EXTT4=
EXTT5=
EXTT6=
EXTT7=
EXTT8=
EXTT9=
EXTT10=
EXTT11=
EXTT12=
PLAYORDER=
